<mxfile host="app.diagrams.net" agent="Mozilla/5.0 (Windows NT 10.0; Win64; x64) AppleWebKit/537.36 (KHTML, like Gecko) Chrome/132.0.0.0 Safari/537.36 OPR/117.0.0.0" version="26.2.12">
  <diagram name="Page-1" id="qKhK7YnF1d_QfTFtyvvZ">
    <mxGraphModel dx="1367" dy="720" grid="1" gridSize="10" guides="1" tooltips="1" connect="1" arrows="1" fold="1" page="1" pageScale="1" pageWidth="827" pageHeight="1169" math="0" shadow="0">
      <root>
        <mxCell id="0" />
        <mxCell id="1" parent="0" />
        <mxCell id="PBbeH8gudL1QGZpZ5H9a-1" value="&lt;p style=&quot;margin:0px;margin-top:4px;text-align:center;&quot;&gt;&lt;b&gt;PhotoService&lt;/b&gt;&lt;/p&gt;&lt;hr size=&quot;1&quot; style=&quot;border-style:solid;&quot;&gt;&lt;p style=&quot;margin:0px;margin-left:4px;&quot;&gt;&amp;nbsp;&lt;/p&gt;&lt;hr size=&quot;1&quot; style=&quot;border-style:solid;&quot;&gt;&lt;p style=&quot;margin:0px;margin-left:4px;&quot;&gt;+ PhotoUpload()&amp;nbsp;&lt;/p&gt;&lt;p style=&quot;margin:0px;margin-left:4px;&quot;&gt;+ PhotoDelete()&lt;br/&gt;&lt;/p&gt;" style="verticalAlign=top;align=left;overflow=fill;html=1;whiteSpace=wrap;" vertex="1" parent="1">
          <mxGeometry x="46" y="210" width="160" height="110" as="geometry" />
        </mxCell>
        <mxCell id="PBbeH8gudL1QGZpZ5H9a-2" value="&lt;b&gt;&lt;font style=&quot;font-size: 13px;&quot;&gt;Avant Application &lt;/font&gt;&lt;/b&gt;&lt;br&gt;du patron de création&amp;nbsp;&lt;br&gt;Fabrique ou Factory Method" style="text;html=1;align=center;verticalAlign=middle;resizable=0;points=[];autosize=1;strokeColor=none;fillColor=none;fontStyle=0;fontFamily=Verdana;" vertex="1" parent="1">
          <mxGeometry x="16" y="510" width="190" height="60" as="geometry" />
        </mxCell>
        <mxCell id="PBbeH8gudL1QGZpZ5H9a-4" value="&lt;p style=&quot;margin:0px;margin-top:4px;text-align:center;&quot;&gt;&lt;i&gt;&amp;lt;&amp;lt;Interface&amp;gt;&amp;gt;&lt;/i&gt;&lt;br&gt;&lt;b&gt;IPhotoService&lt;/b&gt;&lt;/p&gt;&lt;hr size=&quot;1&quot; style=&quot;border-style:solid;&quot;&gt;&lt;p style=&quot;margin:0px;margin-left:4px;&quot;&gt;.......&lt;/p&gt;&lt;hr size=&quot;1&quot; style=&quot;border-style:solid;&quot;&gt;&lt;p style=&quot;margin:0px;margin-left:4px;&quot;&gt;+ PhotoUpload()&amp;nbsp;&lt;/p&gt;&lt;p style=&quot;margin:0px;margin-left:4px;&quot;&gt;+ PhotoDelete()&amp;nbsp;&lt;/p&gt;" style="verticalAlign=top;align=left;overflow=fill;html=1;whiteSpace=wrap;" vertex="1" parent="1">
          <mxGeometry x="686" y="130" width="110" height="110" as="geometry" />
        </mxCell>
        <mxCell id="PBbeH8gudL1QGZpZ5H9a-5" value="&lt;p style=&quot;margin:0px;margin-top:4px;text-align:center;&quot;&gt;&lt;b style=&quot;background-color: transparent; color: light-dark(rgb(0, 0, 0), rgb(255, 255, 255));&quot;&gt;PhotoServiceFactory&lt;/b&gt;&lt;/p&gt;&lt;hr size=&quot;1&quot; style=&quot;border-style:solid;&quot;&gt;&lt;p style=&quot;margin:0px;margin-left:4px;&quot;&gt;.....&lt;/p&gt;&lt;hr size=&quot;1&quot; style=&quot;border-style:solid;&quot;&gt;&lt;p style=&quot;margin:0px;margin-left:4px;&quot;&gt;+ CreatePhotoService()&lt;/p&gt;" style="verticalAlign=top;align=left;overflow=fill;html=1;whiteSpace=wrap;" vertex="1" parent="1">
          <mxGeometry x="390" y="140" width="160" height="90" as="geometry" />
        </mxCell>
        <mxCell id="PBbeH8gudL1QGZpZ5H9a-6" value="&lt;p style=&quot;margin:0px;margin-top:4px;text-align:center;&quot;&gt;&lt;b&gt;CloudinaryPhotoServiceFactory&lt;/b&gt;&lt;/p&gt;&lt;hr size=&quot;1&quot; style=&quot;border-style:solid;&quot;&gt;&lt;p style=&quot;margin:0px;margin-left:4px;&quot;&gt;.....&lt;/p&gt;&lt;hr size=&quot;1&quot; style=&quot;border-style:solid;&quot;&gt;&lt;p style=&quot;margin:0px;margin-left:4px;&quot;&gt;+ CreatePhotoService ()&lt;/p&gt;" style="verticalAlign=top;align=left;overflow=fill;html=1;whiteSpace=wrap;" vertex="1" parent="1">
          <mxGeometry x="370" y="300" width="200" height="90" as="geometry" />
        </mxCell>
        <mxCell id="PBbeH8gudL1QGZpZ5H9a-7" value="&lt;p style=&quot;margin:0px;margin-top:4px;text-align:center;&quot;&gt;&lt;b&gt;PhotoService&lt;/b&gt;&lt;/p&gt;&lt;hr size=&quot;1&quot; style=&quot;border-style:solid;&quot;&gt;&lt;p style=&quot;margin:0px;margin-left:4px;&quot;&gt;...&lt;/p&gt;&lt;hr size=&quot;1&quot; style=&quot;border-style:solid;&quot;&gt;&lt;p style=&quot;margin:0px;margin-left:4px;&quot;&gt;...&lt;/p&gt;" style="verticalAlign=top;align=left;overflow=fill;html=1;whiteSpace=wrap;" vertex="1" parent="1">
          <mxGeometry x="696" y="300" width="90" height="90" as="geometry" />
        </mxCell>
        <mxCell id="PBbeH8gudL1QGZpZ5H9a-8" value="" style="endArrow=block;endSize=16;endFill=0;html=1;rounded=0;exitX=0.5;exitY=0;exitDx=0;exitDy=0;entryX=0.5;entryY=1;entryDx=0;entryDy=0;" edge="1" parent="1" source="PBbeH8gudL1QGZpZ5H9a-6" target="PBbeH8gudL1QGZpZ5H9a-5">
          <mxGeometry y="10" width="160" relative="1" as="geometry">
            <mxPoint x="436" y="250" as="sourcePoint" />
            <mxPoint x="596" y="250" as="targetPoint" />
            <mxPoint as="offset" />
          </mxGeometry>
        </mxCell>
        <mxCell id="PBbeH8gudL1QGZpZ5H9a-9" value="" style="endArrow=block;dashed=1;endFill=0;endSize=12;html=1;rounded=0;exitX=0.5;exitY=0;exitDx=0;exitDy=0;entryX=0.5;entryY=1;entryDx=0;entryDy=0;" edge="1" parent="1" source="PBbeH8gudL1QGZpZ5H9a-7" target="PBbeH8gudL1QGZpZ5H9a-4">
          <mxGeometry width="160" relative="1" as="geometry">
            <mxPoint x="596" y="270" as="sourcePoint" />
            <mxPoint x="736" y="240" as="targetPoint" />
          </mxGeometry>
        </mxCell>
        <mxCell id="PBbeH8gudL1QGZpZ5H9a-10" value="Use" style="endArrow=open;endSize=12;dashed=1;html=1;rounded=0;entryX=-0.011;entryY=0.547;entryDx=0;entryDy=0;entryPerimeter=0;exitX=0.998;exitY=0.563;exitDx=0;exitDy=0;exitPerimeter=0;" edge="1" parent="1" source="PBbeH8gudL1QGZpZ5H9a-5" target="PBbeH8gudL1QGZpZ5H9a-4">
          <mxGeometry width="160" relative="1" as="geometry">
            <mxPoint x="556" y="190" as="sourcePoint" />
            <mxPoint x="686" y="190" as="targetPoint" />
          </mxGeometry>
        </mxCell>
        <mxCell id="PBbeH8gudL1QGZpZ5H9a-11" value="&lt;b&gt;&lt;font style=&quot;font-size: 13px;&quot;&gt;Aprés Application &lt;/font&gt;&lt;/b&gt;&lt;br&gt;du patron de création&amp;nbsp;&lt;br&gt;Fabrique ou Factory Method" style="text;html=1;align=center;verticalAlign=middle;resizable=0;points=[];autosize=1;strokeColor=none;fillColor=none;fontStyle=0;fontFamily=Verdana;" vertex="1" parent="1">
          <mxGeometry x="510" y="510" width="190" height="60" as="geometry" />
        </mxCell>
        <mxCell id="PBbeH8gudL1QGZpZ5H9a-12" value="" style="endArrow=none;dashed=1;html=1;rounded=0;" edge="1" parent="1">
          <mxGeometry width="50" height="50" relative="1" as="geometry">
            <mxPoint x="280" y="590" as="sourcePoint" />
            <mxPoint x="280" y="40" as="targetPoint" />
          </mxGeometry>
        </mxCell>
        <mxCell id="PBbeH8gudL1QGZpZ5H9a-13" value="" style="shape=flexArrow;endArrow=classic;html=1;rounded=0;fillColor=#f8cecc;strokeColor=#b85450;" edge="1" parent="1">
          <mxGeometry width="50" height="50" relative="1" as="geometry">
            <mxPoint x="246" y="280" as="sourcePoint" />
            <mxPoint x="316" y="280" as="targetPoint" />
          </mxGeometry>
        </mxCell>
        <mxCell id="PBbeH8gudL1QGZpZ5H9a-14" value="Product(GoF)" style="text;html=1;align=center;verticalAlign=middle;whiteSpace=wrap;rounded=0;fillColor=none;labelBackgroundColor=#F8CECC;" vertex="1" parent="1">
          <mxGeometry x="750" y="60" width="60" height="30" as="geometry" />
        </mxCell>
        <mxCell id="PBbeH8gudL1QGZpZ5H9a-15" value="" style="endArrow=classic;html=1;rounded=0;" edge="1" parent="1" source="PBbeH8gudL1QGZpZ5H9a-14">
          <mxGeometry width="50" height="50" relative="1" as="geometry">
            <mxPoint x="670" y="120" as="sourcePoint" />
            <mxPoint x="750" y="120" as="targetPoint" />
          </mxGeometry>
        </mxCell>
        <mxCell id="PBbeH8gudL1QGZpZ5H9a-16" value="ConcreteProduct" style="text;html=1;align=center;verticalAlign=middle;resizable=0;points=[];autosize=1;strokeColor=none;fillColor=none;labelBackgroundColor=#F8CECC;" vertex="1" parent="1">
          <mxGeometry x="717" y="430" width="110" height="30" as="geometry" />
        </mxCell>
        <mxCell id="PBbeH8gudL1QGZpZ5H9a-17" value="" style="endArrow=classic;html=1;rounded=0;exitX=0.75;exitY=-0.021;exitDx=0;exitDy=0;exitPerimeter=0;" edge="1" parent="1" source="PBbeH8gudL1QGZpZ5H9a-16">
          <mxGeometry width="50" height="50" relative="1" as="geometry">
            <mxPoint x="710" y="450" as="sourcePoint" />
            <mxPoint x="780" y="400" as="targetPoint" />
          </mxGeometry>
        </mxCell>
        <mxCell id="PBbeH8gudL1QGZpZ5H9a-18" value="Creator(GoF)" style="text;html=1;align=center;verticalAlign=middle;resizable=0;points=[];autosize=1;strokeColor=none;fillColor=none;labelBackgroundColor=#F8CECC;" vertex="1" parent="1">
          <mxGeometry x="365" y="68" width="90" height="30" as="geometry" />
        </mxCell>
        <mxCell id="PBbeH8gudL1QGZpZ5H9a-19" value="" style="endArrow=classic;html=1;rounded=0;exitX=0.489;exitY=0.956;exitDx=0;exitDy=0;exitPerimeter=0;" edge="1" parent="1" source="PBbeH8gudL1QGZpZ5H9a-18">
          <mxGeometry width="50" height="50" relative="1" as="geometry">
            <mxPoint x="445" y="120" as="sourcePoint" />
            <mxPoint x="460" y="130" as="targetPoint" />
          </mxGeometry>
        </mxCell>
        <mxCell id="PBbeH8gudL1QGZpZ5H9a-20" value="ConcreteCreator" style="text;html=1;align=center;verticalAlign=middle;resizable=0;points=[];autosize=1;strokeColor=none;fillColor=none;labelBackgroundColor=#F8CECC;" vertex="1" parent="1">
          <mxGeometry x="330" y="430" width="110" height="30" as="geometry" />
        </mxCell>
        <mxCell id="PBbeH8gudL1QGZpZ5H9a-21" value="" style="endArrow=classic;html=1;rounded=0;exitX=0.597;exitY=0.111;exitDx=0;exitDy=0;exitPerimeter=0;" edge="1" parent="1" source="PBbeH8gudL1QGZpZ5H9a-20">
          <mxGeometry width="50" height="50" relative="1" as="geometry">
            <mxPoint x="370" y="440" as="sourcePoint" />
            <mxPoint x="400" y="400" as="targetPoint" />
          </mxGeometry>
        </mxCell>
      </root>
    </mxGraphModel>
  </diagram>
</mxfile>
